<svg width="25" height="24" viewBox="0 0 25 24" fill="none" xmlns="http://www.w3.org/2000/svg">
<path fill-rule="evenodd" clip-rule="evenodd" d="M15.2591 15.4459C13.9111 16.523 12.2018 17.0431 10.4823 16.8993C8.76279 16.7555 7.16363 15.9587 6.01324 14.6727C4.86286 13.3866 4.24857 11.7089 4.29656 9.98403C4.34455 8.2592 5.05116 6.61821 6.27127 5.3981C7.49138 4.17799 9.13237 3.47138 10.8572 3.42339C12.582 3.3754 14.2598 3.98969 15.5458 5.14007C16.8319 6.29046 17.6287 7.88963 17.7725 9.60912C17.9163 11.3286 17.3962 13.0379 16.3191 14.3859L21.4751 19.5409C21.5488 19.6096 21.6079 19.6924 21.6489 19.7844C21.6899 19.8764 21.7119 19.9757 21.7137 20.0764C21.7155 20.1771 21.697 20.2772 21.6592 20.3705C21.6215 20.4639 21.5654 20.5488 21.4942 20.62C21.4229 20.6912 21.3381 20.7473 21.2447 20.7851C21.1513 20.8228 21.0513 20.8413 20.9506 20.8395C20.8499 20.8378 20.7506 20.8157 20.6586 20.7747C20.5666 20.7337 20.4838 20.6746 20.4151 20.6009L15.2591 15.4459ZM7.33411 13.8839C6.60015 13.1499 6.10027 12.2148 5.89763 11.1967C5.69499 10.1787 5.79869 9.12338 6.19563 8.16424C6.59256 7.20511 7.26492 6.38517 8.12773 5.80805C8.99053 5.23092 10.0051 4.92253 11.0431 4.92183C12.0811 4.92113 13.0961 5.22816 13.9596 5.80412C14.8232 6.38008 15.4967 7.19912 15.8949 8.15772C16.2931 9.11632 16.3983 10.1715 16.197 11.1898C15.9957 12.2081 15.4971 13.1439 14.7641 13.8789L14.7591 13.8839L14.7541 13.8879C13.7692 14.8706 12.4345 15.4221 11.0433 15.4213C9.65203 15.4206 8.31796 14.8676 7.33411 13.8839Z" fill="black"/>
</svg>
